<svg width="14" height="18" viewBox="0 0 14 18" fill="none" xmlns="http://www.w3.org/2000/svg">
<path d="M13.6663 9C13.6663 8.08083 12.9188 7.33333 11.9997 7.33333H11.1663V4.83333C11.1663 2.53583 9.29717 0.666664 6.99967 0.666664C4.70217 0.666664 2.83301 2.53583 2.83301 4.83333V7.33333H1.99967C1.08051 7.33333 0.333008 8.08083 0.333008 9V15.6667C0.333008 16.5858 1.08051 17.3333 1.99967 17.3333H11.9997C12.9188 17.3333 13.6663 16.5858 13.6663 15.6667V9ZM4.49967 4.83333C4.49967 3.455 5.62134 2.33333 6.99967 2.33333C8.37801 2.33333 9.49967 3.455 9.49967 4.83333V7.33333H4.49967V4.83333Z" fill="#4C43CD"/>
</svg>
