<svg width="67" height="67" viewBox="0 0 67 67" fill="none" xmlns="http://www.w3.org/2000/svg">
<path opacity="0.5" d="M33.0282 0.092041C14.789 0.092041 0 14.8424 0 33.034C0 51.2257 14.789 65.976 33.0282 65.976C51.2674 65.976 66.0564 51.2257 66.0564 33.034C66.0564 14.8424 51.2674 0.092041 33.0282 0.092041ZM43.6518 33.5414L27.5505 45.2255C27.4623 45.2888 27.3582 45.3265 27.2498 45.3347C27.1414 45.3428 27.0329 45.321 26.9361 45.2716C26.8394 45.2222 26.7581 45.1471 26.7013 45.0547C26.6446 44.9622 26.6144 44.856 26.6142 44.7475V21.394C26.6139 21.2854 26.6437 21.1788 26.7004 21.086C26.757 20.9933 26.8384 20.9179 26.9353 20.8685C27.0323 20.819 27.1411 20.7972 27.2497 20.8056C27.3583 20.814 27.4624 20.8523 27.5505 20.9161L43.6518 32.5928C43.7278 32.6465 43.7899 32.7176 43.8327 32.8001C43.8755 32.8826 43.8979 32.9742 43.8979 33.0671C43.8979 33.16 43.8755 33.2516 43.8327 33.3341C43.7899 33.4167 43.7278 33.4877 43.6518 33.5414Z" fill="#150f35"/>
<path d="M65.9286 33.5046C65.9286 51.3635 51.4124 65.8458 33.5 65.8458C15.5876 65.8458 1.07145 51.3635 1.07145 33.5046C1.07145 15.6457 15.5876 1.16349 33.5 1.16349C51.4124 1.16349 65.9286 15.6457 65.9286 33.5046Z" stroke="#dee4ed" stroke-width="2.1429"/>
<path d="M46.0067 31.7405C47.3665 32.5236 47.3665 34.4858 46.0067 35.2688L27.3508 46.0117C25.9936 46.7932 24.2992 45.8136 24.2992 44.2475L24.2992 22.7618C24.2992 21.1957 25.9936 20.2161 27.3508 20.9976L46.0067 31.7405Z" fill="#dee4ed"/>
</svg>
