<svg width="67" height="67" viewBox="0 0 67 67" fill="none" xmlns="http://www.w3.org/2000/svg">
<path opacity="0.5" d="M33.0282 0.000488281C14.789 0.000488281 0 14.7894 0 33.0287C0 51.2679 14.789 66.0568 33.0282 66.0568C51.2674 66.0568 66.0563 51.2679 66.0563 33.0287C66.0563 14.7894 51.2674 0.000488281 33.0282 0.000488281ZM43.6517 33.5374L27.5505 45.252C27.4622 45.3155 27.3582 45.3533 27.2498 45.3615C27.1414 45.3696 27.0329 45.3477 26.9361 45.2982C26.8393 45.2487 26.7581 45.1734 26.7013 45.0808C26.6445 44.9881 26.6144 44.8815 26.6142 44.7728V21.3582C26.6139 21.2493 26.6437 21.1424 26.7003 21.0494C26.757 20.9564 26.8383 20.8809 26.9353 20.8313C27.0322 20.7816 27.1411 20.7598 27.2496 20.7683C27.3582 20.7767 27.4624 20.815 27.5505 20.879L43.6517 32.5863C43.7278 32.6401 43.7899 32.7114 43.8327 32.7941C43.8755 32.8769 43.8979 32.9687 43.8979 33.0618C43.8979 33.155 43.8755 33.2468 43.8327 33.3296C43.7899 33.4123 43.7278 33.4836 43.6517 33.5374Z" fill="#150f35"/>
<circle cx="33.5" cy="33.5005" r="32.4286" stroke="#dee4ed" stroke-width="2.1429"/>
</svg>
