<svg width="113" height="40" viewBox="0 0 113 40" fill="none" xmlns="http://www.w3.org/2000/svg">
<g filter="url(#filter0_b_3778_45153)">
<circle cx="20" cy="20" r="20" fill="white" fill-opacity="0.15"/>
</g>
<path fill-rule="evenodd" clip-rule="evenodd" d="M19.9999 21.7237L24.8619 16.8618L25.8047 17.8046L19.9999 23.6094L14.1952 17.8046L15.138 16.8618L19.9999 21.7237Z" fill="#8684b1"/>
<path d="M59.276 24.105C58.667 24.105 58.156 24.014 57.743 23.832C57.33 23.643 57.0115 23.4015 56.7875 23.1075C56.5705 22.8065 56.455 22.488 56.441 22.152C56.441 22.096 56.462 22.047 56.504 22.005C56.553 21.956 56.609 21.9315 56.672 21.9315H57.2075C57.2915 21.9315 57.3545 21.9525 57.3965 21.9945C57.4385 22.0365 57.4665 22.0855 57.4805 22.1415C57.5155 22.3095 57.5995 22.4775 57.7325 22.6455C57.8725 22.8065 58.065 22.943 58.31 23.055C58.562 23.16 58.884 23.2125 59.276 23.2125C59.878 23.2125 60.319 23.1075 60.599 22.8975C60.886 22.6805 61.0295 22.3935 61.0295 22.0365C61.0295 21.7915 60.9525 21.5955 60.7985 21.4485C60.6515 21.2945 60.424 21.158 60.116 21.039C59.808 20.92 59.409 20.7905 58.919 20.6505C58.408 20.5035 57.9845 20.3425 57.6485 20.1675C57.3125 19.9925 57.0605 19.7755 56.8925 19.5165C56.7315 19.2575 56.651 18.9285 56.651 18.5295C56.651 18.1515 56.7525 17.8155 56.9555 17.5215C57.1585 17.2205 57.449 16.9825 57.827 16.8075C58.212 16.6325 58.6775 16.545 59.2235 16.545C59.6575 16.545 60.0355 16.6045 60.3575 16.7235C60.6865 16.8355 60.9595 16.9895 61.1765 17.1855C61.3935 17.3745 61.558 17.581 61.67 17.805C61.782 18.022 61.8415 18.2355 61.8485 18.4455C61.8485 18.4945 61.831 18.5435 61.796 18.5925C61.761 18.6345 61.705 18.6555 61.628 18.6555H61.0715C61.0225 18.6555 60.97 18.6415 60.914 18.6135C60.865 18.5855 60.8265 18.533 60.7985 18.456C60.7565 18.169 60.5955 17.9275 60.3155 17.7315C60.0355 17.5355 59.6715 17.4375 59.2235 17.4375C58.7685 17.4375 58.3975 17.525 58.1105 17.7C57.8305 17.875 57.6905 18.148 57.6905 18.519C57.6905 18.757 57.757 18.9565 57.89 19.1175C58.023 19.2715 58.233 19.408 58.52 19.527C58.807 19.646 59.1815 19.772 59.6435 19.905C60.2035 20.059 60.662 20.2235 61.019 20.3985C61.376 20.5665 61.6385 20.78 61.8065 21.039C61.9815 21.291 62.069 21.6165 62.069 22.0155C62.069 22.4565 61.9535 22.8345 61.7225 23.1495C61.4915 23.4575 61.166 23.6955 60.746 23.8635C60.333 24.0245 59.843 24.105 59.276 24.105ZM65.5137 24.105C65.0167 24.105 64.5862 24.0105 64.2222 23.8215C63.8652 23.6255 63.5887 23.349 63.3927 22.992C63.1967 22.628 63.0917 22.194 63.0777 21.69C63.0707 21.585 63.0672 21.445 63.0672 21.27C63.0672 21.095 63.0707 20.955 63.0777 20.85C63.0917 20.346 63.1967 19.9155 63.3927 19.5585C63.5887 19.1945 63.8652 18.918 64.2222 18.729C64.5862 18.533 65.0167 18.435 65.5137 18.435C65.9197 18.435 66.2662 18.491 66.5532 18.603C66.8472 18.715 67.0887 18.8585 67.2777 19.0335C67.4667 19.2085 67.6067 19.3975 67.6977 19.6005C67.7957 19.8035 67.8482 19.996 67.8552 20.178C67.8622 20.248 67.8412 20.304 67.7922 20.346C67.7432 20.388 67.6837 20.409 67.6137 20.409H67.1097C67.0397 20.409 66.9872 20.395 66.9522 20.367C66.9172 20.332 66.8822 20.276 66.8472 20.199C66.7212 19.856 66.5497 19.6145 66.3327 19.4745C66.1157 19.3345 65.8462 19.2645 65.5242 19.2645C65.1042 19.2645 64.7612 19.394 64.4952 19.653C64.2362 19.912 64.0962 20.3285 64.0752 20.9025C64.0682 21.1545 64.0682 21.3995 64.0752 21.6375C64.0962 22.2185 64.2362 22.6385 64.4952 22.8975C64.7612 23.1495 65.1042 23.2755 65.5242 23.2755C65.8462 23.2755 66.1157 23.2055 66.3327 23.0655C66.5497 22.9255 66.7212 22.684 66.8472 22.341C66.8822 22.264 66.9172 22.2115 66.9522 22.1835C66.9872 22.1485 67.0397 22.131 67.1097 22.131H67.6137C67.6837 22.131 67.7432 22.152 67.7922 22.194C67.8412 22.236 67.8622 22.292 67.8552 22.362C67.8482 22.509 67.8167 22.6595 67.7607 22.8135C67.7047 22.9675 67.6137 23.125 67.4877 23.286C67.3687 23.44 67.2182 23.58 67.0362 23.706C66.8542 23.825 66.6337 23.923 66.3747 24C66.1227 24.07 65.8357 24.105 65.5137 24.105ZM69.3437 24C69.2737 24 69.2142 23.979 69.1652 23.937C69.1232 23.888 69.1022 23.8285 69.1022 23.7585V18.792C69.1022 18.722 69.1232 18.6625 69.1652 18.6135C69.2142 18.5645 69.2737 18.54 69.3437 18.54H69.8267C69.8967 18.54 69.9562 18.5645 70.0052 18.6135C70.0542 18.6625 70.0787 18.722 70.0787 18.792V19.254C70.2187 19.016 70.4112 18.8375 70.6562 18.7185C70.9012 18.5995 71.1952 18.54 71.5382 18.54H71.9582C72.0282 18.54 72.0842 18.5645 72.1262 18.6135C72.1682 18.6555 72.1892 18.7115 72.1892 18.7815V19.212C72.1892 19.282 72.1682 19.338 72.1262 19.38C72.0842 19.422 72.0282 19.443 71.9582 19.443H71.3282C70.9502 19.443 70.6527 19.555 70.4357 19.779C70.2187 19.996 70.1102 20.2935 70.1102 20.6715V23.7585C70.1102 23.8285 70.0857 23.888 70.0367 23.937C69.9877 23.979 69.9282 24 69.8582 24H69.3437ZM75.2249 24.105C74.6929 24.105 74.2484 24.0035 73.8914 23.8005C73.5344 23.5975 73.2614 23.3175 73.0724 22.9605C72.8834 22.5965 72.7784 22.1835 72.7574 21.7215C72.7504 21.6025 72.7469 21.452 72.7469 21.27C72.7469 21.081 72.7504 20.9305 72.7574 20.8185C72.7784 20.3495 72.8834 19.9365 73.0724 19.5795C73.2684 19.2225 73.5449 18.9425 73.9019 18.7395C74.2589 18.5365 74.6999 18.435 75.2249 18.435C75.7499 18.435 76.1909 18.5365 76.5479 18.7395C76.9049 18.9425 77.1779 19.2225 77.3669 19.5795C77.5629 19.9365 77.6714 20.3495 77.6924 20.8185C77.6994 20.9305 77.7029 21.081 77.7029 21.27C77.7029 21.452 77.6994 21.6025 77.6924 21.7215C77.6714 22.1835 77.5664 22.5965 77.3774 22.9605C77.1884 23.3175 76.9154 23.5975 76.5584 23.8005C76.2014 24.0035 75.7569 24.105 75.2249 24.105ZM75.2249 23.2965C75.6589 23.2965 76.0054 23.16 76.2644 22.887C76.5234 22.607 76.6634 22.201 76.6844 21.669C76.6914 21.564 76.6949 21.431 76.6949 21.27C76.6949 21.109 76.6914 20.976 76.6844 20.871C76.6634 20.339 76.5234 19.9365 76.2644 19.6635C76.0054 19.3835 75.6589 19.2435 75.2249 19.2435C74.7909 19.2435 74.4409 19.3835 74.1749 19.6635C73.9159 19.9365 73.7794 20.339 73.7654 20.871C73.7584 20.976 73.7549 21.109 73.7549 21.27C73.7549 21.431 73.7584 21.564 73.7654 21.669C73.7794 22.201 73.9159 22.607 74.1749 22.887C74.4409 23.16 74.7909 23.2965 75.2249 23.2965ZM79.2697 24C79.1997 24 79.1402 23.979 79.0912 23.937C79.0492 23.888 79.0282 23.8285 79.0282 23.7585V16.7865C79.0282 16.7165 79.0492 16.6605 79.0912 16.6185C79.1402 16.5695 79.1997 16.545 79.2697 16.545H79.7632C79.8402 16.545 79.8997 16.5695 79.9417 16.6185C79.9837 16.6605 80.0047 16.7165 80.0047 16.7865V23.7585C80.0047 23.8285 79.9837 23.888 79.9417 23.937C79.8997 23.979 79.8402 24 79.7632 24H79.2697ZM81.8229 24C81.7529 24 81.6934 23.979 81.6444 23.937C81.6024 23.888 81.5814 23.8285 81.5814 23.7585V16.7865C81.5814 16.7165 81.6024 16.6605 81.6444 16.6185C81.6934 16.5695 81.7529 16.545 81.8229 16.545H82.3164C82.3934 16.545 82.4529 16.5695 82.4949 16.6185C82.5369 16.6605 82.5579 16.7165 82.5579 16.7865V23.7585C82.5579 23.8285 82.5369 23.888 82.4949 23.937C82.4529 23.979 82.3934 24 82.3164 24H81.8229ZM88.6929 24.105C88.3079 24.105 87.9754 24.0385 87.6954 23.9055C87.4154 23.7655 87.1844 23.58 87.0024 23.349C86.8274 23.111 86.6944 22.8415 86.6034 22.5405C86.5194 22.2395 86.4704 21.921 86.4564 21.585C86.4494 21.473 86.4459 21.368 86.4459 21.27C86.4459 21.172 86.4494 21.067 86.4564 20.955C86.4704 20.626 86.5194 20.311 86.6034 20.01C86.6944 19.709 86.8274 19.4395 87.0024 19.2015C87.1844 18.9635 87.4154 18.778 87.6954 18.645C87.9754 18.505 88.3079 18.435 88.6929 18.435C89.1059 18.435 89.4489 18.5085 89.7219 18.6555C89.9949 18.8025 90.2189 18.9845 90.3939 19.2015V16.7865C90.3939 16.7165 90.4149 16.6605 90.4569 16.6185C90.5059 16.5695 90.5654 16.545 90.6354 16.545H91.1394C91.2094 16.545 91.2654 16.5695 91.3074 16.6185C91.3564 16.6605 91.3809 16.7165 91.3809 16.7865V23.7585C91.3809 23.8285 91.3564 23.888 91.3074 23.937C91.2654 23.979 91.2094 24 91.1394 24H90.6669C90.5899 24 90.5304 23.979 90.4884 23.937C90.4464 23.888 90.4254 23.8285 90.4254 23.7585V23.3175C90.2504 23.5415 90.0229 23.7305 89.7429 23.8845C89.4629 24.0315 89.1129 24.105 88.6929 24.105ZM88.9134 23.2545C89.2634 23.2545 89.5434 23.174 89.7534 23.013C89.9634 22.852 90.1209 22.649 90.2259 22.404C90.3309 22.152 90.3869 21.8965 90.3939 21.6375C90.4009 21.5255 90.4044 21.3925 90.4044 21.2385C90.4044 21.0775 90.4009 20.941 90.3939 20.829C90.3869 20.584 90.3274 20.3425 90.2154 20.1045C90.1104 19.8665 89.9494 19.6705 89.7324 19.5165C89.5224 19.3625 89.2494 19.2855 88.9134 19.2855C88.5564 19.2855 88.2729 19.366 88.0629 19.527C87.8529 19.681 87.7024 19.8875 87.6114 20.1465C87.5204 20.3985 87.4679 20.6715 87.4539 20.9655C87.4469 21.1685 87.4469 21.3715 87.4539 21.5745C87.4679 21.8685 87.5204 22.145 87.6114 22.404C87.7024 22.656 87.8529 22.8625 88.0629 23.0235C88.2729 23.1775 88.5564 23.2545 88.9134 23.2545ZM95.179 24.105C94.647 24.105 94.2025 24.0035 93.8455 23.8005C93.4885 23.5975 93.2155 23.3175 93.0265 22.9605C92.8375 22.5965 92.7325 22.1835 92.7115 21.7215C92.7045 21.6025 92.701 21.452 92.701 21.27C92.701 21.081 92.7045 20.9305 92.7115 20.8185C92.7325 20.3495 92.8375 19.9365 93.0265 19.5795C93.2225 19.2225 93.499 18.9425 93.856 18.7395C94.213 18.5365 94.654 18.435 95.179 18.435C95.704 18.435 96.145 18.5365 96.502 18.7395C96.859 18.9425 97.132 19.2225 97.321 19.5795C97.517 19.9365 97.6255 20.3495 97.6465 20.8185C97.6535 20.9305 97.657 21.081 97.657 21.27C97.657 21.452 97.6535 21.6025 97.6465 21.7215C97.6255 22.1835 97.5205 22.5965 97.3315 22.9605C97.1425 23.3175 96.8695 23.5975 96.5125 23.8005C96.1555 24.0035 95.711 24.105 95.179 24.105ZM95.179 23.2965C95.613 23.2965 95.9595 23.16 96.2185 22.887C96.4775 22.607 96.6175 22.201 96.6385 21.669C96.6455 21.564 96.649 21.431 96.649 21.27C96.649 21.109 96.6455 20.976 96.6385 20.871C96.6175 20.339 96.4775 19.9365 96.2185 19.6635C95.9595 19.3835 95.613 19.2435 95.179 19.2435C94.745 19.2435 94.395 19.3835 94.129 19.6635C93.87 19.9365 93.7335 20.339 93.7195 20.871C93.7125 20.976 93.709 21.109 93.709 21.27C93.709 21.431 93.7125 21.564 93.7195 21.669C93.7335 22.201 93.87 22.607 94.129 22.887C94.395 23.16 94.745 23.2965 95.179 23.2965ZM100.277 24C100.186 24 100.116 23.979 100.067 23.937C100.018 23.888 99.9763 23.8215 99.9413 23.7375L98.4503 18.8655C98.4363 18.8305 98.4293 18.7955 98.4293 18.7605C98.4293 18.6975 98.4503 18.645 98.4923 18.603C98.5413 18.561 98.5938 18.54 98.6498 18.54H99.1118C99.1888 18.54 99.2483 18.561 99.2903 18.603C99.3323 18.645 99.3603 18.6835 99.3743 18.7185L100.54 22.677L101.789 18.7605C101.803 18.7115 101.831 18.6625 101.873 18.6135C101.922 18.5645 101.992 18.54 102.083 18.54H102.44C102.531 18.54 102.601 18.5645 102.65 18.6135C102.699 18.6625 102.727 18.7115 102.734 18.7605L103.984 22.677L105.149 18.7185C105.156 18.6835 105.181 18.645 105.223 18.603C105.265 18.561 105.324 18.54 105.401 18.54H105.863C105.926 18.54 105.979 18.561 106.021 18.603C106.063 18.645 106.084 18.6975 106.084 18.7605C106.084 18.7955 106.077 18.8305 106.063 18.8655L104.572 23.7375C104.551 23.8215 104.512 23.888 104.456 23.937C104.407 23.979 104.334 24 104.236 24H103.826C103.735 24 103.658 23.979 103.595 23.937C103.539 23.888 103.501 23.8215 103.48 23.7375L102.262 19.9785L101.044 23.7375C101.016 23.8215 100.974 23.888 100.918 23.937C100.862 23.979 100.785 24 100.687 24H100.277ZM107.488 24C107.418 24 107.359 23.979 107.31 23.937C107.268 23.888 107.247 23.8285 107.247 23.7585V18.7815C107.247 18.7115 107.268 18.6555 107.31 18.6135C107.359 18.5645 107.418 18.54 107.488 18.54H107.982C108.052 18.54 108.108 18.5645 108.15 18.6135C108.199 18.6555 108.223 18.7115 108.223 18.7815V19.2435C108.405 19.0055 108.633 18.813 108.906 18.666C109.186 18.512 109.543 18.435 109.977 18.435C110.432 18.435 110.817 18.5365 111.132 18.7395C111.454 18.9355 111.695 19.212 111.856 19.569C112.017 19.919 112.098 20.3285 112.098 20.7975V23.7585C112.098 23.8285 112.077 23.888 112.035 23.937C111.993 23.979 111.937 24 111.867 24H111.342C111.272 24 111.212 23.979 111.163 23.937C111.121 23.888 111.1 23.8285 111.1 23.7585V20.85C111.1 20.36 110.981 19.9785 110.743 19.7055C110.505 19.4255 110.155 19.2855 109.693 19.2855C109.259 19.2855 108.909 19.4255 108.643 19.7055C108.384 19.9785 108.255 20.36 108.255 20.85V23.7585C108.255 23.8285 108.23 23.888 108.181 23.937C108.139 23.979 108.083 24 108.013 24H107.488Z" fill="#8684b1"/>
<defs>
<filter id="filter0_b_3778_45153" x="-4" y="-4" width="48" height="48" filterUnits="userSpaceOnUse" color-interpolation-filters="sRGB">
<feFlood flood-opacity="0" result="BackgroundImageFix"/>
<feGaussianBlur in="BackgroundImage" stdDeviation="2"/>
<feComposite in2="SourceAlpha" operator="in" result="effect1_backgroundBlur_3778_45153"/>
<feBlend mode="normal" in="SourceGraphic" in2="effect1_backgroundBlur_3778_45153" result="shape"/>
</filter>
</defs>
</svg>